<svg version="1.0" xmlns="http://www.w3.org/2000/svg" width="600.000000pt" height="433.000000pt" viewBox="0 0 600.000000 433.000000" preserveAspectRatio="xMidYMid meet" style="width: 933.832983px; height: auto;"> <g transform="translate(0.000000,433.000000) scale(0.100000,-0.100000)" fill="#000000" stroke="none">          <path d="M3195 3925 c-23 -22 -25 -32 -25 -110 0 -82 -1 -85 -23 -85 -25 0 -726 -97 -765 -105 -37 -9 -24 -40 15 -39 l32 2 -30 -60 c-44 -87 -106 -278 -125 -388 -10 -55 -17 -152 -18 -232 -1 -76 -2 -138 -4 -138 -7 0 -168 75 -179 83 -30 22 -12 189 38 345 35 111 39 208 11 263 -15 30 -16 40 -5 65 15 37 16 92 2 150 l-12 46 -57 -63 c-56 -63 -57 -63 -106 -60 -68 3 -159 -31 -178 -68 -11 -20 -42 -40 -120 -75 -103 -48 -106 -50 -106 -82 0 -38 15 -82 37 -106 14 -15 23 -13 121 37 59 30 109 51 112 48 3 -3 0 -7 -5 -10 -34 -12 -175 -108 -175 -119 0 -24 45 -65 80 -73 48 -10 62 -5 82 29 9 16 35 38 58 50 l42 21 -7 -23 c-4 -13 -26 -63 -48 -113 -22 -49 -55 -130 -72 -180 l-31 -90 -93 -47 c-51 -25 -130 -58 -176 -73 l-82 -27 -7 -61 c-11 -109 -6 -359 9 -454 32 -196 109 -361 229 -490 108 -116 275 -235 301 -213 9 8 16 5 27 -12 9 -13 33 -41 54 -63 l39 -40 -185 0 c-178 0 -185 -1 -185 -20 0 -20 7 -20 1335 -20 1328 0 1335 0 1335 20 0 19 -7 20 -157 20 -86 0 -154 3 -150 6 4 3 33 11 65 18 157 34 312 153 381 292 92 187 83 411 -27 689 l-33 85 35 1 c50 0 87 28 107 79 21 57 13 105 -27 150 -60 68 -151 71 -219 7 -48 -47 -64 -102 -57 -202 9 -140 -19 -243 -88 -319 l-38 -42 -49 103 c-121 253 -178 486 -178 738 0 277 62 514 204 774 41 75 49 84 81 90 39 8 47 16 35 36 -7 11 -85 3 -457 -50 -246 -34 -454 -65 -460 -67 -10 -4 -13 14 -13 71 0 68 -3 80 -25 101 -13 14 -29 25 -35 25 -6 0 -22 -11 -35 -25z m50 -94 c7 -74 3 -91 -22 -91 -11 0 -14 6 -9 23 3 12 6 48 6 80 0 79 17 72 25 -12z m878 4 c-3 -9 -8 -14 -10 -11 -3 3 -2 9 2 15 9 16 15 13 8 -4z m-42 -44 c-33 -46 -117 -226 -146 -315 -114 -341 -108 -692 16 -1054 47 -135 62 -167 98 -206 l26 -28 -38 25 c-21 15 -47 29 -57 32 -11 3 -20 17 -22 32 -2 21 -11 29 -42 37 -37 10 -42 16 -68 81 -129 313 -148 681 -53 1009 31 106 91 246 144 336 38 63 45 70 74 71 18 1 43 4 57 8 34 10 36 7 11 -28z m-155 -25 c-75 -111 -159 -336 -192 -511 -28 -149 -26 -443 4 -582 25 -113 76 -275 98 -310 8 -12 14 -24 14 -26 0 -5 -140 45 -157 56 -15 10 -58 140 -82 250 -11 49 -22 91 -25 95 -29 28 -3 -129 43 -257 15 -45 25 -81 21 -81 -4 0 -27 7 -51 16 -24 8 -56 13 -70 10 -25 -5 -27 -1 -48 67 -11 40 -21 78 -21 85 0 14 -16 16 -24 4 -5 -8 20 -99 39 -144 9 -21 -33 -30 -99 -20 l-48 7 -19 60 c-11 33 -28 102 -39 154 -10 52 -26 101 -36 110 -15 15 -16 14 -11 -4 3 -11 11 -49 17 -84 6 -35 22 -101 36 -147 13 -46 24 -85 24 -87 0 -4 -154 5 -158 8 -2 2 -16 52 -32 112 -19 74 -30 102 -35 90 -6 -15 21 -148 40 -198 5 -12 -8 -15 -66 -17 -40 -2 -75 -5 -79 -7 -14 -9 -70 219 -85 348 -7 61 -25 79 -25 24 0 -51 29 -211 55 -298 l22 -77 -65 -12 c-35 -6 -66 -9 -69 -7 -2 3 -16 54 -32 115 -19 77 -31 108 -39 103 -9 -5 -7 -26 8 -83 11 -42 24 -88 30 -103 5 -14 10 -30 10 -34 0 -9 -119 -45 -125 -39 -2 2 -15 42 -29 90 -100 344 -84 674 48 1000 58 144 91 198 119 198 12 0 39 3 60 7 l39 6 -35 -69 c-54 -108 -101 -240 -93 -261 6 -13 16 6 40 72 18 50 52 128 75 176 l42 85 65 10 c35 5 64 8 64 6 0 -1 -14 -30 -31 -64 -76 -150 -154 -407 -131 -430 8 -8 13 -3 17 18 30 139 54 217 101 324 30 69 60 132 67 141 11 14 144 45 154 36 1 -2 -13 -34 -31 -72 -49 -102 -82 -206 -78 -240 3 -24 9 -15 31 55 15 47 47 127 71 178 41 87 45 92 74 92 17 0 49 5 71 10 22 5 41 7 43 5 2 -1 -13 -36 -34 -76 -20 -41 -49 -110 -65 -154 -15 -44 -31 -89 -35 -100 -7 -19 -7 -19 13 -2 11 10 31 48 43 85 12 37 42 108 65 158 l43 92 43 7 c24 3 59 9 77 12 l33 5 -45 -91 c-44 -86 -55 -121 -38 -121 4 0 30 49 59 108 l52 108 73 11 c40 5 74 9 76 7 2 -1 -9 -21 -23 -45 -65 -102 -155 -347 -133 -360 9 -6 17 9 30 54 21 79 75 207 122 291 33 58 40 66 74 71 20 4 44 8 52 10 8 1 25 3 37 4 l22 1 -23 -34z m-1854 -227 l-20 -41 21 -36 c32 -54 30 -153 -5 -257 -38 -110 -48 -163 -50 -250 l-1 -75 -36 22 c-20 12 -46 28 -58 36 -24 15 -30 13 -86 -31 -21 -16 -40 -27 -42 -25 -5 5 18 66 91 236 24 57 44 112 44 122 0 11 6 20 14 20 44 0 101 83 91 131 -10 43 -39 35 -43 -11 -5 -49 -24 -66 -105 -90 -53 -16 -81 -32 -110 -61 -43 -42 -54 -46 -81 -26 -16 12 -9 19 73 71 50 31 93 62 97 67 8 14 -35 59 -56 59 -9 0 -58 -20 -110 -45 -51 -25 -97 -42 -101 -38 -4 4 -10 20 -14 34 -6 24 -1 28 85 67 56 26 105 57 129 81 45 46 102 65 164 56 39 -6 44 -4 82 35 l40 41 3 -26 c2 -14 -5 -44 -16 -66z m626 15 c-52 -99 -94 -214 -125 -344 -20 -83 -26 -141 -30 -280 -6 -201 9 -326 58 -491 34 -115 33 -109 13 -109 -8 0 -38 -10 -66 -22 -47 -20 -51 -20 -60 -4 -5 10 -9 86 -9 170 2 164 -5 236 -23 236 -6 0 -43 9 -82 21 l-72 21 -7 53 c-10 80 13 294 44 418 31 123 76 244 119 322 25 46 31 50 72 56 25 4 46 5 48 4 2 -2 -14 -38 -36 -81 -84 -168 -136 -375 -147 -594 -5 -93 -4 -133 6 -155 12 -27 14 -14 20 130 3 88 14 198 23 245 39 193 145 455 189 464 114 25 111 28 65 -60z m-749 -664 c6 0 11 -5 11 -11 0 -6 7 -8 16 -5 8 3 12 2 9 -4 -3 -6 1 -10 11 -10 14 0 15 -2 3 -17 -12 -16 -11 -16 8 0 21 18 22 18 47 -10 14 -15 26 -24 26 -19 0 5 8 2 18 -6 24 -21 98 -48 107 -40 5 4 4 1 0 -7 -6 -11 -4 -13 8 -8 10 3 17 2 17 -4 0 -6 7 -6 19 1 16 8 25 5 43 -13 22 -22 48 -33 108 -43 44 -8 48 -25 50 -206 0 -94 5 -178 9 -187 6 -9 4 -23 -5 -36 -18 -27 -47 -170 -41 -201 2 -13 1 -22 -3 -19 -8 5 -34 -26 -38 -45 -2 -8 -14 -37 -28 -66 -13 -28 -24 -56 -24 -62 0 -6 -10 -18 -22 -26 -12 -9 -18 -16 -13 -16 5 0 0 -7 -11 -16 -10 -8 -12 -13 -4 -9 8 4 0 -7 -18 -24 -18 -17 -30 -31 -27 -31 3 0 -3 -9 -12 -19 -9 -11 -21 -17 -27 -14 -6 4 -4 -2 4 -12 8 -10 10 -16 4 -12 -15 9 -96 -52 -87 -65 3 -7 1 -8 -5 -4 -6 3 -16 -3 -22 -14 -6 -11 -15 -18 -21 -15 -5 4 -9 1 -9 -4 0 -6 -3 -10 -7 -9 -18 5 -101 -58 -96 -73 5 -14 -63 1 -88 20 -15 12 -31 21 -35 21 -21 0 -255 215 -251 231 1 4 -6 14 -16 21 -10 7 -19 21 -20 29 -2 9 -11 29 -22 45 -18 27 -43 83 -49 111 -1 7 -5 16 -9 19 -4 4 -7 18 -7 30 0 13 -5 26 -11 30 -8 4 -7 9 2 15 9 6 10 9 2 9 -6 0 -14 12 -17 28 -4 15 -9 38 -13 52 -3 14 -8 129 -9 257 -4 269 -12 248 108 284 69 21 127 47 155 71 14 11 15 11 9 0 -5 -8 10 -2 33 12 22 14 46 26 53 26 9 0 10 3 2 8 -8 5 -5 13 7 26 11 11 19 14 19 8 0 -7 5 -12 11 -12 5 0 8 4 5 9 -3 5 1 12 10 15 10 4 13 2 8 -7 -4 -6 1 -5 12 4 10 9 33 24 49 32 26 14 31 14 41 1 6 -8 16 -14 23 -14z m2542 -229 c23 -23 29 -38 29 -72 0 -73 -65 -115 -112 -72 -37 33 -11 96 31 74 41 -22 56 -4 24 31 -23 26 -65 23 -93 -7 -22 -23 -23 -28 -14 -112 5 -49 9 -142 9 -208 0 -115 -2 -123 -32 -185 -38 -77 -80 -130 -91 -114 -4 6 -24 32 -46 57 l-38 47 45 50 c73 81 90 138 92 305 1 89 6 150 14 165 38 74 128 94 182 41z m-86 -180 c3 -5 1 -12 -4 -15 -5 -3 -11 1 -15 9 -6 16 9 21 19 6z m-1089 -80 c-6 -9 -46 -22 -46 -15 0 3 10 9 23 14 29 11 29 11 23 1z m-61 -11 c-3 -5 -13 -10 -21 -10 -8 0 -14 -4 -14 -10 0 -5 -5 -10 -11 -10 -20 0 -3 24 22 31 13 4 25 7 27 8 2 1 0 -3 -3 -9z m285 -150 l0 -160 -70 0 -70 0 0 148 0 149 68 10 c37 5 68 11 70 11 1 1 2 -70 2 -158z m-375 121 c-14 -12 -168 -33 -188 -25 -18 7 -236 -23 -275 -37 -22 -9 -23 -13 -20 -94 2 -47 0 -85 -3 -85 -4 0 -39 30 -79 67 -82 76 -89 63 56 114 108 38 262 68 392 77 103 8 137 3 117 -17z m591 -27 l174 -56 0 -122 0 -121 -180 25 -180 25 0 152 c0 84 3 153 6 153 3 0 84 -25 180 -56z m690 -33 c10 -31 18 -72 19 -91 2 -19 8 -62 14 -94 16 -84 14 -241 -4 -309 -28 -107 -98 -217 -175 -272 -23 -17 -51 -40 -63 -52 -12 -12 -40 -29 -62 -38 l-40 -16 35 30 c19 17 41 31 48 31 7 0 10 5 6 12 -5 7 -3 8 5 3 20 -12 115 98 155 179 59 120 70 179 72 374 1 126 -1 171 -9 163 -14 -14 -23 -14 -39 2 -9 10 -12 36 -10 93 3 70 5 77 18 60 7 -11 21 -44 30 -75z m-1068 -78 l-3 -148 -65 -3 -65 -3 0 141 c0 133 1 141 20 145 32 7 68 12 93 14 l23 1 -3 -147z m-158 -28 l0 -135 -64 0 c-34 0 -90 -3 -122 -6 l-59 -6 0 125 0 126 55 7 c30 4 75 10 100 14 98 17 90 28 90 -125z m-270 -15 l0 -130 -24 0 c-13 0 -38 -3 -55 -6 l-31 -6 0 130 0 131 33 4 c85 10 77 23 77 -123z m-130 -15 c0 -77 -4 -125 -10 -125 -6 0 -10 47 -10 121 0 77 -4 118 -10 114 -5 -3 -10 -22 -10 -41 0 -30 -3 -34 -25 -34 -14 0 -25 -5 -25 -11 0 -7 11 -9 29 -6 26 5 28 4 27 -24 -1 -25 -5 -29 -28 -29 -16 0 -28 -4 -28 -10 0 -5 12 -10 28 -10 22 0 27 -4 27 -25 0 -30 -4 -30 -44 -7 l-31 17 0 92 0 92 28 4 c15 2 39 5 55 6 l27 1 0 -125z m-140 -97 c180 -115 383 -180 705 -227 390 -57 680 -30 844 80 92 61 155 153 168 244 8 65 23 45 23 -33 0 -154 -127 -310 -310 -381 -118 -45 -236 -61 -461 -61 -489 0 -847 97 -1119 301 -104 79 -101 73 -84 144 7 33 14 75 14 94 l0 35 83 -81 c45 -44 107 -96 137 -115z m1343 106 c29 -15 60 -33 70 -42 16 -15 16 -16 -10 -34 -16 -11 -49 -30 -75 -44 l-48 -24 0 85 c0 47 2 85 5 85 3 0 29 -12 58 -26z m166 -153 l42 -50 -45 -26 c-50 -29 -132 -60 -188 -70 l-38 -7 0 59 c0 58 1 59 33 71 18 6 57 27 87 46 30 19 58 33 61 30 4 -2 26 -26 48 -53z m-649 -62 c0 -88 -2 -100 -16 -95 -9 3 -31 6 -50 6 -31 0 -34 3 -34 30 0 28 2 30 40 30 23 0 40 5 40 11 0 7 -15 10 -40 7 l-40 -4 0 43 c0 24 -4 43 -10 43 -6 0 -10 -32 -10 -75 0 -43 -4 -75 -10 -75 -6 0 -10 35 -10 85 l0 84 58 4 c31 2 63 4 70 5 9 2 12 -24 12 -99z m390 -26 c0 -40 -4 -73 -9 -73 -5 0 -7 27 -5 60 2 32 -1 62 -6 65 -6 4 -10 -19 -10 -59 0 -37 -4 -66 -10 -66 -6 0 -10 28 -10 65 0 37 -4 65 -10 65 -6 0 -10 -28 -10 -64 0 -36 -4 -68 -10 -71 -6 -4 -10 22 -10 69 0 49 -4 76 -11 76 -8 0 -10 -24 -7 -75 2 -56 0 -75 -9 -75 -9 0 -13 21 -13 75 0 47 -4 75 -11 75 -7 0 -9 -26 -7 -75 2 -55 0 -75 -9 -75 -9 0 -13 23 -13 80 0 47 -4 80 -10 80 -6 0 -10 -33 -10 -80 0 -64 -3 -80 -15 -80 -12 0 -15 16 -15 80 0 44 -3 80 -7 80 -5 0 -7 -36 -5 -81 3 -72 2 -80 -14 -77 -15 3 -17 14 -15 86 1 52 -2 82 -8 82 -7 0 -11 -32 -11 -85 0 -71 -2 -83 -15 -79 -12 5 -15 24 -15 84 0 44 -4 82 -10 85 -6 4 -10 -25 -10 -79 0 -70 -3 -86 -15 -86 -12 0 -15 18 -15 98 l0 97 180 -24 180 -25 0 -73z m-550 31 c0 -64 -3 -85 -12 -82 -8 3 -15 33 -19 79 -4 57 -6 63 -7 27 l-2 -48 -41 0 c-24 0 -38 -4 -34 -10 3 -5 22 -10 41 -10 25 0 34 -4 34 -16 0 -13 -7 -15 -31 -10 -17 3 -38 6 -45 6 -11 0 -14 17 -14 69 l0 70 48 4 c26 2 55 4 65 5 15 2 17 -8 17 -84z m-160 11 c0 -61 -1 -65 -22 -64 -13 0 -17 3 -10 6 24 10 11 25 -18 21 -29 -4 -30 -3 -30 34 0 21 -4 38 -10 38 -5 0 -10 -18 -10 -40 0 -22 -4 -40 -10 -40 -5 0 -10 22 -10 49 l0 50 48 4 c26 2 53 4 60 5 8 1 12 -17 12 -63z m-655 -62 c143 -96 336 -175 517 -212 340 -70 725 -78 953 -20 153 39 302 134 350 223 27 50 36 45 20 -14 -18 -68 -45 -109 -116 -175 -141 -130 -331 -183 -691 -192 -481 -13 -851 73 -1133 262 -124 83 -120 77 -82 167 l32 75 45 -37 c25 -20 72 -55 105 -77z m515 72 c0 -54 -19 -61 -22 -7 l-1 37 -4 -33 c-3 -25 -8 -32 -20 -28 -8 3 -19 6 -24 6 -5 0 -9 7 -9 15 0 8 5 15 10 15 6 0 10 5 10 10 0 6 -7 10 -15 10 -8 0 -15 -9 -15 -20 0 -11 -4 -20 -10 -20 -5 0 -10 11 -10 24 0 26 7 29 72 34 l38 2 0 -45z m-130 13 c0 -17 -3 -19 -12 -10 -7 7 -21 12 -32 12 -12 0 -28 5 -36 10 -11 7 -2 10 33 10 42 0 47 -2 47 -22z m1490 -14 c0 -16 -15 -32 -25 -28 -17 7 -9 31 10 31 8 0 15 -1 15 -3z m-1918 -286 c318 -186 842 -266 1326 -202 204 27 351 82 448 167 25 22 47 38 49 36 8 -8 -105 -148 -147 -182 -153 -124 -286 -147 -846 -147 -407 0 -479 7 -650 61 -168 54 -338 145 -445 238 l-37 33 39 47 c21 25 43 56 50 68 11 22 12 21 76 -27 35 -27 97 -68 137 -92z m1860 45 c-5 -10 -11 -23 -13 -30 -2 -7 -9 -9 -16 -5 -10 6 -9 13 3 30 18 27 39 30 26 5z m-2166 -94 c33 -36 170 -128 260 -174 93 -48 223 -94 271 -98 17 -1 29 -4 27 -6 -2 -3 -95 -4 -207 -2 l-202 2 -55 32 c-30 18 -90 68 -133 112 l-79 79 43 38 c24 20 47 38 50 38 3 0 14 -9 25 -21z m-88 -148 c34 -38 85 -84 112 -102 28 -18 50 -33 50 -34 0 -7 -199 10 -211 19 -21 15 -109 115 -109 124 1 6 78 59 90 61 3 0 33 -30 68 -68z m1872 -131 c0 -18 -6 -20 -72 -19 l-73 1 50 9 c28 5 58 10 68 11 9 1 17 6 17 10 0 4 2 8 5 8 3 0 5 -9 5 -20z m-1131 -16 c2 -2 -12 -4 -32 -4 -20 0 -38 4 -42 9 -5 9 64 4 74 -5z" class="" stroke-width="1"></path> <path d="M3418 3509 c-10 -5 -18 -22 -19 -37 -1 -21 -23 -47 -102 -117 -71 -63 -107 -89 -121 -87 -34 6 -96 72 -96 102 0 29 -27 60 -52 60 -34 0 -62 -62 -38 -86 6 -6 5 -33 -1 -74 -6 -36 -14 -173 -18 -305 -4 -132 -11 -250 -15 -262 -9 -23 22 -63 49 -63 25 0 57 40 51 63 -4 15 8 36 40 76 64 78 83 76 178 -18 57 -56 72 -77 69 -95 -9 -46 57 -75 91 -40 21 21 20 53 -3 78 -16 18 -19 42 -23 149 -3 70 -4 127 -3 127 1 0 42 -52 91 -115 49 -64 90 -108 92 -100 5 21 -10 44 -87 137 -59 73 -67 89 -63 116 2 18 -1 39 -8 47 -28 34 -108 5 -97 -36 4 -13 -11 -28 -57 -58 -83 -53 -107 -49 -179 34 l-56 62 52 52 c29 28 60 51 68 51 26 0 53 27 54 53 0 18 25 47 98 113 56 50 104 102 112 121 14 34 39 44 48 19 8 -19 -22 -58 -39 -52 -18 7 -27 -15 -50 -122 l-17 -80 54 -62 54 -62 7 33 c6 29 2 39 -23 64 -16 17 -29 40 -29 50 0 29 33 165 40 165 3 0 22 -22 43 -48 26 -34 34 -54 30 -70 -7 -29 13 -52 46 -52 32 0 51 16 51 45 0 27 -18 45 -46 45 -14 0 -35 18 -62 52 -32 42 -39 56 -31 71 8 13 6 25 -6 43 -16 25 -47 31 -77 13z m-368 -142 c0 -11 10 -32 23 -46 18 -21 19 -23 2 -11 -11 8 -25 22 -32 30 -10 12 -11 11 -6 -10 3 -14 3 -22 -1 -18 -4 3 -7 9 -7 12 1 4 -6 20 -15 37 -8 17 -11 28 -5 25 6 -4 11 -3 11 3 0 6 7 8 15 5 8 -4 15 -15 15 -27z m33 -101 c15 -19 27 -41 27 -48 0 -13 -69 -88 -81 -88 -3 0 -3 19 2 43 4 23 8 61 9 85 0 23 3 42 8 42 4 0 19 -16 35 -34z m527 20 c0 -17 -27 -29 -35 -16 -4 6 -3 15 0 20 9 15 35 12 35 -4z m-426 -75 c-3 -3 -9 -6 -12 -6 -4 0 -13 -4 -21 -9 -10 -6 -12 -5 -7 3 4 6 2 19 -5 27 -10 12 -9 13 6 8 14 -6 16 -4 10 7 -5 8 1 5 13 -5 12 -11 19 -22 16 -25z m-159 -127 c-3 -18 -1 -35 5 -39 12 -7 14 -26 3 -24 -22 4 -33 -2 -27 -13 5 -9 4 -10 -3 -3 -15 16 -4 112 14 112 11 0 13 -8 8 -33z m384 -43 c11 -7 10 -13 -5 -35 -19 -25 -33 -33 -35 -18 -7 50 -5 62 10 62 9 0 22 -4 30 -9z m-288 -162 c3 -18 -8 -39 -39 -75 -23 -27 -42 -52 -42 -56 0 -5 -4 -8 -10 -8 -6 0 -10 51 -10 134 l0 135 49 -52 c27 -29 50 -64 52 -78z m233 -31 l6 -137 -69 70 c-88 90 -89 107 -5 165 32 22 59 40 60 40 1 -1 4 -63 8 -138z m-198 63 c24 4 45 -2 38 -12 -3 -6 0 -15 7 -21 11 -7 9 -8 -6 -6 -12 2 -19 -2 -17 -10 2 -10 -2 -10 -17 0 -10 6 -17 17 -14 24 2 6 0 15 -6 19 -6 3 -11 12 -11 18 0 8 3 8 9 -1 4 -7 12 -12 17 -11z m-130 -193 c4 -7 3 -8 -5 -4 -9 6 -10 0 -5 -19 6 -23 4 -26 -12 -23 -30 5 -23 57 8 58 4 0 10 -5 14 -12z m390 -67 c-4 -5 -16 -9 -27 -8 -16 1 -20 7 -18 32 4 47 10 50 31 16 11 -17 17 -35 14 -40z" class="" stroke-width="1"></path> <path d="M2664 3275 c-14 -22 -15 -28 -2 -47 11 -18 12 -35 5 -73 -4 -27 -9 -135 -9 -240 0 -108 -5 -195 -10 -202 -6 -7 -7 -24 -4 -38 7 -28 49 -44 75 -28 22 14 27 71 7 79 -13 5 -16 28 -16 138 l0 133 45 -44 c25 -23 45 -49 45 -56 0 -20 21 -37 46 -37 23 0 54 24 54 41 0 15 -49 61 -58 55 -5 -3 -36 23 -70 57 l-62 62 7 53 6 53 34 -33 c19 -18 41 -48 48 -65 10 -25 20 -33 39 -33 27 0 56 23 56 46 0 18 -36 54 -53 54 -17 0 -99 84 -91 93 4 3 -1 18 -10 32 -22 33 -60 33 -82 0z m62 -20 c3 -7 6 -19 8 -27 1 -7 6 -20 11 -28 8 -13 7 -13 -8 -1 -9 7 -17 10 -17 5 0 -9 -40 47 -40 56 0 12 41 8 46 -5z m144 -152 c0 -2 -6 -11 -14 -18 -12 -12 -15 -12 -19 5 -3 10 -3 21 0 24 6 5 33 -4 33 -11z m-167 -56 c14 -21 13 -24 -2 -34 -15 -10 -17 -7 -17 23 1 19 2 34 2 34 1 0 9 -10 17 -23z m157 -143 c0 -8 -4 -14 -10 -14 -5 0 -10 5 -10 11 0 5 -4 7 -10 4 -5 -3 -7 0 -4 9 7 18 34 10 34 -10z m-158 -194 c4 -28 2 -33 -13 -35 -13 -2 -18 19 -10 43 3 7 21 1 23 -8z" class="" stroke-width="1"></path> <path d="M3256 3239 c-34 -99 -53 -259 -31 -259 8 0 14 28 19 88 4 48 12 107 17 131 9 41 5 71 -5 40z" stroke-width="1"></path> <path d="M3557 3118 c-11 -135 -8 -224 6 -236 11 -9 13 7 13 86 0 53 4 127 8 165 6 55 5 67 -7 67 -10 0 -16 -21 -20 -82z" stroke-width="1"></path> <path d="M2866 3011 c-4 -7 -5 -15 -2 -18 9 -9 19 4 14 18 -4 11 -6 11 -12 0z" stroke-width="1"></path> <path d="M2769 2633 c-13 -16 -12 -17 4 -4 16 13 21 21 13 21 -2 0 -10 -8 -17 -17z" stroke-width="1"></path>    <path d="M1865 2870 c-5 -5 -20 -18 -32 -29 -12 -10 -24 -17 -27 -13 -3 3 -6 0 -6 -7 0 -7 -4 -10 -9 -7 -5 3 -11 0 -14 -8 -3 -8 -22 -19 -41 -26 -20 -6 -36 -16 -36 -21 0 -6 -4 -8 -9 -4 -5 3 -12 1 -16 -5 -3 -5 -12 -10 -18 -10 -7 0 -6 4 3 10 10 7 11 10 2 10 -7 0 -15 -7 -18 -15 -5 -12 -23 -22 -54 -30 -3 -1 -18 -7 -33 -13 -16 -7 -33 -9 -39 -6 -6 4 -8 2 -4 -4 3 -6 -6 -13 -24 -17 -64 -14 -68 -27 -69 -231 -1 -102 1 -189 4 -194 4 -6 8 -39 10 -75 2 -36 7 -71 12 -78 4 -6 8 -14 8 -17 5 -29 20 -77 36 -109 10 -22 19 -44 19 -49 0 -6 16 -33 35 -61 19 -28 35 -53 35 -56 0 -10 80 -95 132 -141 12 -11 37 -29 55 -39 18 -10 29 -23 26 -29 -4 -5 0 -7 8 -4 16 6 42 -16 31 -27 -4 -4 -2 -6 3 -4 6 1 23 -3 39 -10 22 -9 32 -9 44 1 13 11 14 11 7 -1 -5 -8 6 -4 24 10 18 13 40 29 49 34 9 6 23 17 30 25 8 9 11 9 7 2 -4 -7 11 -1 33 15 22 15 38 30 36 32 -1 2 18 20 44 40 26 21 53 49 61 64 8 14 18 24 22 22 4 -3 11 5 14 17 4 13 17 33 28 46 11 12 17 22 13 22 -5 0 2 9 15 21 13 11 17 17 9 13 -8 -5 -3 8 11 27 14 18 31 57 39 84 7 28 16 55 20 60 8 12 33 126 30 140 -1 6 -1 12 0 15 10 27 12 68 12 210 -1 90 -4 175 -7 188 -6 24 -67 58 -85 47 -6 -4 -10 -1 -10 4 0 6 -3 10 -7 9 -11 -2 -66 13 -78 22 -5 4 -21 11 -35 15 -40 11 -153 66 -172 82 -9 8 -21 12 -26 9 -5 -3 -18 3 -29 13 -41 38 -86 51 -108 31z m74 -39 c57 -41 230 -121 338 -156 l112 -37 7 -67 c6 -61 -1 -309 -10 -318 -4 -4 -328 67 -335 73 -4 4 44 78 112 172 21 28 33 52 28 52 -5 0 -13 -5 -17 -11 -6 -10 -171 -135 -201 -153 -9 -5 -11 -2 -7 9 6 14 -49 372 -63 415 -3 8 -21 -77 -40 -190 -19 -113 -36 -211 -38 -218 -3 -8 -39 14 -97 59 -51 40 -99 77 -107 83 -13 10 63 -105 126 -191 13 -18 22 -33 20 -33 -2 0 -72 -16 -157 -35 -84 -20 -154 -34 -156 -32 -9 9 -14 196 -7 282 l8 99 80 28 c103 36 247 109 305 152 53 41 63 42 99 17z m-41 -471 l-3 -109 -32 39 -32 38 29 163 c16 90 31 175 32 189 4 45 9 -208 6 -320z m39 78 c-3 -8 -6 -5 -6 6 -1 11 2 17 5 13 3 -3 4 -12 1 -19z m30 -65 c17 -13 45 -2 71 27 7 8 11 9 7 3 -3 -7 -1 -13 6 -13 7 0 2 -12 -12 -26 -13 -14 -31 -23 -41 -21 -9 3 -29 -6 -43 -19 -14 -12 -25 -20 -26 -16 -6 36 -3 70 5 81 9 12 8 13 -4 6 -13 -8 -13 -7 0 10 15 18 15 18 18 -1 2 -10 11 -24 19 -31z m-190 18 c12 -11 23 -18 25 -16 2 3 3 -9 2 -26 -1 -19 6 -40 21 -57 l23 -27 -39 1 c-63 2 -69 3 -69 14 0 6 9 10 21 10 11 0 17 5 14 10 -3 6 -1 10 4 10 18 0 12 25 -14 64 -27 39 -21 47 12 17z m354 -105 c68 -15 140 -31 159 -35 23 -6 -35 -9 -175 -10 l-209 -1 39 40 c22 22 44 39 50 36 6 -2 67 -16 136 -30z m-273 -83 l-37 -37 -58 13 c-32 7 -105 23 -163 36 l-105 23 200 1 200 1 -37 -37z m-232 -14 l141 -32 -77 -111 c-43 -61 -76 -113 -74 -115 3 -3 19 9 37 25 42 40 168 137 171 132 5 -6 66 -403 66 -426 0 -43 17 -13 23 40 9 76 63 378 69 383 3 3 47 -27 99 -66 52 -39 101 -77 109 -83 13 -10 13 -9 0 10 -81 115 -140 205 -140 214 0 5 8 10 18 10 9 0 81 14 160 31 78 17 146 29 149 25 10 -10 -34 -170 -66 -241 -65 -143 -167 -259 -315 -356 -48 -33 -92 -59 -96 -59 -16 0 -127 80 -188 136 -116 105 -202 254 -237 411 -9 37 -18 78 -21 91 -4 19 -1 23 13 19 10 -3 81 -20 159 -38z m338 -69 c-4 -19 -19 -107 -34 -195 l-28 -160 -1 234 -1 234 35 -39 c30 -34 34 -44 29 -74z m144 85 c4 -4 0 -6 -8 -4 -39 6 -99 -42 -74 -60 5 -3 17 -21 26 -39 l18 -33 -33 22 c-17 12 -33 23 -35 24 -1 1 -4 12 -7 23 -6 32 -24 62 -38 62 -9 0 -9 2 0 8 13 9 142 6 151 -3z m-239 -112 c-1 -65 -3 -72 -9 -39 -4 22 -16 45 -26 53 -18 13 -43 19 -31 7 3 -4 -10 -17 -30 -31 -19 -13 -38 -22 -41 -18 -3 3 0 5 7 5 7 0 9 5 5 12 -4 6 -3 8 3 5 10 -6 27 27 24 46 -1 5 3 6 9 2 5 -3 10 -1 10 6 0 10 3 10 12 1 7 -7 17 -12 23 -12 5 0 3 5 -5 10 -12 8 -11 10 7 10 12 0 25 5 28 10 13 20 15 8 14 -67z" stroke-width="1"></path> <path d="M1774 2579 c-77 -36 -93 -54 -72 -75 14 -14 21 -12 71 16 38 21 57 39 62 57 3 14 5 27 3 29 -2 1 -31 -11 -64 -27z" stroke-width="1"></path> <path d="M1960 2593 c0 -25 11 -39 37 -47 12 -4 37 -18 57 -31 34 -23 36 -23 57 -6 l23 18 -40 26 c-31 21 -114 57 -130 57 -2 0 -4 -8 -4 -17z" stroke-width="1"></path> <path d="M2157 2460 c-14 -20 -13 -26 9 -73 13 -29 24 -57 24 -63 0 -10 30 -23 52 -24 11 0 -22 102 -47 143 -23 39 -23 39 -38 17z" stroke-width="1"></path> <path d="M1625 2447 c-20 -30 -55 -121 -55 -142 0 -11 6 -12 30 -4 17 6 30 18 30 27 0 9 9 35 21 59 18 38 19 45 6 64 l-15 21 -17 -25z" stroke-width="1"></path> <path d="M2221 2181 c-16 -4 -28 -20 -41 -54 -10 -27 -24 -54 -30 -62 -8 -10 -8 -19 2 -34 7 -12 16 -21 20 -21 15 0 87 168 75 175 -1 1 -13 -1 -26 -4z" stroke-width="1"></path> <path d="M1575 2153 c9 -40 56 -143 65 -143 3 0 12 10 19 23 9 18 8 29 -9 62 -11 21 -20 45 -20 52 0 13 -30 33 -50 33 -8 0 -10 -9 -5 -27z" stroke-width="1"></path> <path d="M1699 1974 c-11 -14 -10 -18 6 -31 28 -21 125 -66 131 -60 9 9 -8 57 -21 57 -7 0 -29 11 -49 25 -43 29 -49 30 -67 9z" stroke-width="1"></path> <path d="M2035 1959 c-27 -16 -53 -30 -57 -31 -3 -2 -10 -15 -13 -30 l-7 -28 40 14 c45 16 88 38 116 61 20 15 20 15 0 30 -24 18 -19 19 -79 -16z" stroke-width="1"></path> <path d="M3490 2364 c0 -3 7 -12 15 -20 13 -14 15 -13 15 5 0 12 -6 21 -15 21 -8 0 -15 -3 -15 -6z" stroke-width="1"></path> <path d="M3420 2230 c0 -80 4 -130 10 -130 6 0 10 16 10 35 0 34 1 35 40 35 28 0 40 4 40 14 0 11 -10 13 -40 9 l-40 -6 0 36 c0 34 2 36 37 39 20 2 38 8 40 13 2 7 -12 9 -37 7 l-40 -4 0 41 c0 23 -4 41 -10 41 -6 0 -10 -50 -10 -130z" stroke-width="1"></path> <path d="M3496 2119 c-19 -19 -19 -19 2 -19 15 0 22 6 22 20 0 24 0 24 -24 -1z" stroke-width="1"></path> <path d="M3600 2231 c0 -81 4 -131 10 -131 6 0 10 48 10 124 0 73 -4 127 -10 131 -6 4 -10 -40 -10 -124z" stroke-width="1"></path> <path d="M3650 2220 c0 -73 4 -120 10 -120 6 0 10 47 10 120 0 73 -4 120 -10 120 -6 0 -10 -47 -10 -120z" stroke-width="1"></path> <path d="M3699 2323 c-4 -60 -2 -233 4 -233 4 0 7 54 7 120 0 66 -2 120 -5 120 -3 0 -5 -3 -6 -7z" stroke-width="1"></path> <path d="M3740 2201 c0 -74 4 -121 10 -121 6 0 10 45 10 114 0 66 -4 117 -10 121 -6 4 -10 -37 -10 -114z" stroke-width="1"></path> <path d="M3780 2190 c0 -67 4 -110 10 -110 6 0 10 43 10 110 0 67 -4 110 -10 110 -6 0 -10 -43 -10 -110z" stroke-width="1"></path> <path d="M3820 2180 c0 -67 4 -110 10 -110 6 0 10 43 10 110 0 67 -4 110 -10 110 -6 0 -10 -43 -10 -110z" stroke-width="1"></path> <path d="M3860 2176 c0 -59 4 -108 10 -111 6 -4 10 31 10 99 0 59 -4 108 -10 111 -6 4 -10 -31 -10 -99z" stroke-width="1"></path> <path d="M3900 2160 c0 -60 4 -100 10 -100 6 0 10 40 10 100 0 60 -4 100 -10 100 -6 0 -10 -40 -10 -100z" stroke-width="1"></path> <path d="M3338 2308 c-3 -42 -4 -43 -40 -46 -21 -2 -38 -8 -38 -14 0 -7 14 -8 40 -4 l40 6 0 -34 c0 -32 -2 -34 -41 -40 -49 -8 -44 -22 6 -17 32 2 34 1 38 -36 2 -21 4 22 5 95 2 128 -4 177 -10 90z" stroke-width="1"></path> <path d="M3260 2325 c0 -8 4 -15 9 -15 5 0 14 7 21 15 10 13 9 15 -9 15 -12 0 -21 -6 -21 -15z" stroke-width="1"></path> <path d="M3260 2100 c0 -11 6 -20 13 -20 22 0 27 11 12 26 -19 19 -25 18 -25 -6z" stroke-width="1"></path> <path d="M3170 2195 c0 -70 4 -115 10 -115 6 0 10 45 10 115 0 70 -4 115 -10 115 -6 0 -10 -45 -10 -115z" stroke-width="1"></path> <path d="M3080 2184 c0 -74 4 -113 10 -109 6 4 10 53 10 116 0 66 -4 109 -10 109 -6 0 -10 -45 -10 -116z" stroke-width="1"></path> <path d="M3125 2190 c0 -60 3 -110 8 -110 4 0 7 50 7 110 0 61 -3 110 -7 110 -5 0 -8 -49 -8 -110z" stroke-width="1"></path> <path d="M3000 2180 c0 -62 2 -111 4 -109 7 7 9 209 2 216 -3 4 -6 -45 -6 -107z" stroke-width="1"></path> <path d="M3030 2280 c0 -5 5 -10 10 -10 6 0 10 5 10 10 0 6 -4 10 -10 10 -5 0 -10 -4 -10 -10z" stroke-width="1"></path> <path d="M2912 2276 c13 -14 28 -12 28 5 0 5 -9 9 -20 9 -17 0 -19 -2 -8 -14z" stroke-width="1"></path> <path d="M2850 2170 c0 -67 4 -110 10 -110 6 0 10 14 10 30 0 27 3 30 30 30 17 0 30 5 30 10 0 6 -13 10 -30 10 -27 0 -30 3 -30 30 0 27 3 30 30 30 17 0 30 5 30 11 0 7 -11 9 -30 6 -29 -6 -30 -5 -30 28 0 19 -4 35 -10 35 -6 0 -10 -43 -10 -110z" stroke-width="1"></path> <path d="M2912 2075 c-11 -13 -9 -15 8 -15 11 0 20 7 20 15 0 19 -11 19 -28 0z" stroke-width="1"></path> <path d="M2725 2259 c-4 -6 -5 -13 -2 -16 7 -7 27 6 27 18 0 12 -17 12 -25 -2z" stroke-width="1"></path>  <path d="M3485 2030 c-3 -5 0 -10 9 -10 8 0 17 -6 19 -12 3 -7 6 -3 6 10 1 22 -22 31 -34 12z" stroke-width="1"></path> <path d="M3260 2005 c0 -8 3 -15 6 -15 3 0 12 7 20 15 14 13 13 15 -5 15 -12 0 -21 -6 -21 -15z" stroke-width="1"></path> <path d="M3170 2011 c0 -10 30 -24 37 -17 3 3 2 9 -2 15 -8 13 -35 15 -35 2z" class="" stroke-width="1"></path>             </g> </svg>